<?xml version="1.0" encoding="UTF-8" standalone="no"?>
<!DOCTYPE svg PUBLIC "-//W3C//DTD SVG 1.1//EN" "http://www.w3.org/Graphics/SVG/1.1/DTD/svg11.dtd">
<svg xmlns="http://www.w3.org/2000/svg" version="1.1" viewBox="0.00 0.00 512.00 512.00">
<g stroke-width="2.00" fill="none" stroke-linecap="butt">
<path stroke="#de5b5e" vector-effect="non-scaling-stroke" d="
  M 131.61 16.03
  Q 136.32 22.57 142.19 27.90
  Q 142.54 28.21 142.79 28.62
  L 144.85 31.99"
/>
<path stroke="#e3734f" vector-effect="non-scaling-stroke" d="
  M 43.84 32.00
  L 45.46 31.77
  Q 45.86 31.72 45.53 31.48
  Q 45.16 31.21 44.56 31.43
  Q 44.07 31.62 43.71 31.25
  L 32.87 20.15
  A 0.55 0.54 -53.6 0 0 31.99 20.29
  Q 31.90 20.45 31.80 20.61
  Q 31.65 20.84 31.43 20.68
  Q 30.26 19.78 29.67 18.38"
/>
<path stroke="#e88743" vector-effect="non-scaling-stroke" d="
  M 31.98 107.44
  L 31.29 109.96
  Q 31.12 110.58 30.67 110.12
  L 23.29 102.64
  Q 23.13 102.47 23.12 102.24
  Q 23.12 102.07 23.11 101.89
  Q 23.07 101.39 22.75 101.01
  Q 19.76 97.51 16.03 95.59"
/>
<path stroke="#d9476a" vector-effect="non-scaling-stroke" d="
  M 170.52 16.02
  Q 172.26 16.71 172.27 18.48
  A 1.08 1.06 17.1 0 0 172.75 19.37
  L 175.42 21.17
  Q 175.77 21.40 175.86 21.82
  L 175.95 22.24
  A 1.27 1.26 14.4 0 0 176.37 22.94
  Q 180.46 26.40 183.63 30.68
  Q 183.94 31.09 183.51 31.38
  Q 182.54 32.02 181.04 31.98"
/>
<path stroke="#eb9739" vector-effect="non-scaling-stroke" d="
  M 31.96 146.97
  Q 31.45 148.19 31.47 149.56
  Q 31.48 149.81 31.31 149.63
  L 17.10 133.82
  Q 16.80 133.48 16.76 133.01
  L 16.74 132.74
  A 0.26 0.26 0.0 0 0 16.23 132.75
  L 16.05 139.71"
/>
<path stroke="#d73c71" vector-effect="non-scaling-stroke" d="
  M 243.94 16.02
  Q 245.33 16.21 246.41 16.56
  Q 247.44 16.89 248.44 17.93
  Q 253.00 22.68 257.78 27.23
  Q 261.31 30.59 259.24 31.97"
/>
<path stroke="#e88743" vector-effect="non-scaling-stroke" d="
  M 253.03 328.02
  L 251.87 329.43
  Q 251.44 329.95 251.92 330.43
  L 261.49 340.14
  Q 261.84 340.49 261.69 340.97
  Q 261.28 342.26 262.73 342.43
  Q 263.11 342.48 262.88 342.78
  Q 262.79 342.91 262.69 343.04
  Q 262.60 343.17 262.75 343.17
  Q 263.86 343.19 264.31 343.98"
/>
<path stroke="#e26f52" vector-effect="non-scaling-stroke" d="
  M 319.54 328.05
  Q 323.81 333.79 328.93 338.32
  Q 329.12 338.49 329.12 338.74
  Q 329.12 338.90 329.15 339.05
  Q 329.20 339.40 329.44 339.65
  L 332.57 343.03
  Q 332.90 343.38 333.39 343.32
  Q 333.76 343.27 334.02 343.47
  Q 334.39 343.75 333.93 343.79
  L 331.79 343.98"
/>
<path stroke="#f4bf1f" vector-effect="non-scaling-stroke" d="
  M 31.92 320.37
  Q 30.26 315.67 27.26 312.74
  Q 24.73 310.25 19.85 302.94
  C 19.07 301.78 19.05 300.89 19.13 299.55
  A 0.52 0.51 -14.2 0 0 18.35 299.09
  L 17.74 299.47
  A 0.16 0.16 0.0 0 0 17.76 299.75
  Q 17.90 299.82 18.07 299.87
  Q 18.22 299.92 18.08 299.99
  L 17.48 300.29
  Q 17.37 300.35 17.37 300.22
  L 17.37 298.79
  Q 17.37 298.31 17.01 298.63
  Q 16.86 298.77 16.83 298.96
  Q 16.78 299.28 16.46 299.25
  L 16.00 299.21"
/>
<path stroke="#f1b029" vector-effect="non-scaling-stroke" d="
  M 31.97 235.04
  Q 31.86 235.64 31.56 236.04
  Q 31.26 236.42 30.98 236.03
  Q 24.42 226.83 16.85 218.42
  A 0.61 0.58 -67.5 0 1 16.69 218.01
  Q 16.69 217.85 16.63 217.72
  Q 16.32 216.99 16.41 217.82
  Q 16.55 219.16 16.01 220.06"
/>
<path stroke="#dc5463" vector-effect="non-scaling-stroke" d="
  M 491.56 389.75
  L 482.19 380.76
  Q 481.84 380.42 481.90 379.93
  Q 482.19 377.63 479.93 377.27"
/>
<path stroke="#dc5463" vector-effect="non-scaling-stroke" d="
  M 447.92 344.02
  Q 448.19 342.34 447.13 341.52
  C 445.65 340.37 444.45 339.03 443.10 337.75
  Q 442.89 337.55 442.89 337.26
  Q 442.88 337.08 442.86 336.90
  Q 442.79 336.44 442.46 336.12
  L 435.45 328.98
  Q 435.39 328.91 435.30 328.90
  Q 435.15 328.88 434.98 328.83
  Q 434.68 328.73 434.66 328.53
  Q 434.63 328.32 434.75 328.00"
/>
<path stroke="#f4bf1f" vector-effect="non-scaling-stroke" d="
  M 39.80 328.06
  Q 42.22 329.00 43.26 330.33
  C 46.80 334.82 51.54 338.88 55.52 343.10
  Q 56.04 343.65 55.28 343.61
  Q 53.85 343.53 53.43 343.97"
/>
<path stroke="#f4bf1f" vector-effect="non-scaling-stroke" d="
  M 90.03 384.01
  Q 90.09 384.49 89.47 384.35
  Q 89.92 384.32 90.30 384.52
  Q 90.45 384.60 90.37 384.75
  Q 90.31 384.86 90.25 384.98
  Q 90.14 385.20 90.30 385.38
  L 103.31 399.97"
/>
<path stroke="#d12481" vector-effect="non-scaling-stroke" d="
  M 318.48 16.01
  L 317.93 16.25
  Q 317.35 16.51 317.81 16.96
  Q 324.92 23.88 331.10 31.97"
/>
<path stroke="#d9476a" vector-effect="non-scaling-stroke" d="
  M 495.98 337.37
  L 488.02 329.61
  Q 487.88 329.47 487.88 329.27
  Q 487.88 329.07 487.84 328.86
  Q 487.77 328.41 487.45 328.09
  L 481.46 322.06
  Q 480.83 321.42 480.83 322.32
  L 480.86 327.09
  Q 480.87 327.64 480.36 327.42
  L 480.01 327.27"
/>
<path stroke="#e0635a" vector-effect="non-scaling-stroke" d="
  M 392.71 328.03
  L 399.69 335.28
  Q 399.87 335.47 399.88 335.74
  Q 399.88 335.94 399.90 336.14
  Q 399.96 336.62 400.31 336.96
  L 406.48 342.99
  A 0.17 0.17 0.0 0 1 406.26 343.26
  Q 405.87 343.00 405.58 343.15
  Q 405.05 343.44 405.64 343.54
  Q 406.26 343.65 406.21 343.99"
/>
<path stroke="#eea331" vector-effect="non-scaling-stroke" d="
  M 31.95 192.49
  L 16.01 175.88"
/>
<path stroke="#eea331" vector-effect="non-scaling-stroke" d="
  M 154.72 328.02
  L 154.14 328.14
  Q 152.69 328.44 154.17 328.59
  L 154.79 328.66
  Q 155.30 328.71 154.98 329.11
  Q 154.72 329.43 155.03 329.72
  Q 160.98 335.42 165.16 340.03
  Q 165.21 340.09 166.40 341.85
  Q 167.28 343.16 168.98 343.45
  Q 169.20 343.49 169.01 343.60
  Q 168.77 343.75 168.45 343.50
  Q 168.09 343.23 167.92 343.64
  L 167.79 343.98"
/>
<path stroke="#d73c71" vector-effect="non-scaling-stroke" d="
  M 495.99 300.06
  Q 495.32 298.70 495.37 297.04
  Q 495.38 296.87 495.26 296.99
  L 495.03 297.22
  A 0.31 0.30 44.3 0 1 494.60 297.22
  L 490.06 292.70
  Q 489.88 292.52 489.88 292.26
  L 489.88 291.95
  Q 489.88 291.57 489.61 291.29
  L 481.65 283.17
  Q 481.20 282.71 480.96 283.30
  L 480.02 285.58"
/>
<path stroke="#d12481" vector-effect="non-scaling-stroke" d="
  M 495.99 215.73
  L 495.53 212.76
  Q 495.46 212.26 494.98 212.09
  Q 493.07 211.41 492.96 209.60
  Q 492.93 209.21 492.64 208.96
  Q 486.01 203.30 481.01 196.17
  Q 480.63 195.62 480.43 196.26
  L 480.02 197.53"
/>
<path stroke="#eb9739" vector-effect="non-scaling-stroke" d="
  M 210.96 328.03
  Q 209.83 327.98 209.16 328.22
  Q 207.77 328.72 209.28 328.61
  Q 211.63 328.44 212.82 330.51
  Q 212.88 330.61 212.88 330.74
  L 212.88 331.21
  A 0.71 0.70 21.3 0 0 213.11 331.73
  Q 219.20 337.19 224.35 343.97"
/>
<path stroke="#e4784c" vector-effect="non-scaling-stroke" d="
  M 284.42 328.04
  Q 288.19 332.88 292.41 336.88
  Q 293.35 337.78 294.63 339.94
  Q 296.18 342.57 299.39 343.96"
/>
<path stroke="#f1b029" vector-effect="non-scaling-stroke" d="
  M 78.30 328.01
  Q 78.00 328.61 77.04 328.39
  Q 76.96 328.37 77.04 328.37
  L 78.24 328.44
  A 0.14 0.14 0.0 0 1 78.33 328.68
  Q 78.22 328.77 78.12 328.89
  Q 77.86 329.19 78.14 329.48
  Q 81.89 333.34 85.76 337.09
  Q 85.99 337.31 86.06 337.55
  Q 86.14 337.83 86.15 338.12
  Q 86.18 338.61 86.51 338.95
  L 91.37 343.98"
/>
<path stroke="#e0635a" vector-effect="non-scaling-stroke" d="
  M 435.29 399.94
  Q 437.15 400.12 438.40 399.38
  Q 438.86 399.10 438.41 398.82
  Q 436.64 397.72 435.66 395.99
  Q 434.40 393.79 433.59 392.98
  Q 429.56 389.05 425.60 384.92
  Q 425.25 384.56 425.76 384.58
  Q 427.87 384.68 427.68 384.00"
/>
<path stroke="#f1b029" vector-effect="non-scaling-stroke" d="
  M 154.94 384.02
  Q 155.50 384.62 156.96 384.49
  Q 157.22 384.47 157.07 384.68
  Q 156.98 384.81 156.87 384.91
  Q 156.67 385.10 156.86 385.30
  Q 159.74 388.30 162.76 391.18
  Q 162.94 391.35 162.98 391.57
  Q 163.03 391.80 163.04 392.04
  Q 163.05 392.52 163.39 392.87
  L 170.26 399.99"
/>
<path stroke="#e4784c" vector-effect="non-scaling-stroke" d="
  M 352.80 384.03
  L 355.52 388.09
  A 1.08 1.04 -0.9 0 0 355.85 388.40
  Q 357.00 389.11 357.63 390.22
  Q 358.68 392.08 359.07 392.52
  Q 363.03 397.05 367.62 400.01"
/>
<path stroke="#eb9739" vector-effect="non-scaling-stroke" d="
  M 250.49 384.02
  Q 252.26 386.30 253.88 388.47
  Q 255.59 390.78 257.63 392.56
  Q 261.87 396.29 266.16 400.02"
/>
<path stroke="#e88743" vector-effect="non-scaling-stroke" d="
  M 317.82 384.02
  L 319.02 386.24
  Q 319.24 386.64 319.55 386.98
  L 331.85 400.04"
/>
<path stroke="#eb9739" vector-effect="non-scaling-stroke" d="
  M 333.78 495.99
  L 334.13 495.41
  Q 334.30 495.13 333.97 495.13
  L 333.55 495.13
  Q 333.23 495.13 333.05 494.86
  C 331.64 492.72 330.42 490.70 328.52 488.89
  Q 324.13 484.70 319.90 480.02"
/>
<path stroke="#eb9739" vector-effect="non-scaling-stroke" d="
  M 316.98 464.02
  L 305.31 452.73
  Q 305.11 452.54 305.11 452.26
  L 305.11 451.93
  Q 305.11 451.50 304.81 451.20
  L 296.30 442.69
  Q 296.11 442.50 296.11 442.24
  L 296.11 441.96
  Q 296.11 441.53 295.82 441.23
  L 292.69 438.05
  Q 292.14 437.48 292.14 438.28
  Q 292.14 439.46 291.72 439.80"
/>
<path stroke="#eea331" vector-effect="non-scaling-stroke" d="
  M 204.84 384.03
  Q 205.75 385.02 208.28 384.63
  Q 208.38 384.61 208.45 384.68
  Q 208.48 384.72 208.52 384.76
  Q 208.62 384.88 208.50 384.88
  L 206.32 384.88
  Q 205.25 384.88 206.01 385.64
  L 212.70 392.30
  Q 212.89 392.49 212.89 392.75
  L 212.89 393.08
  Q 212.89 393.51 213.20 393.81
  L 222.85 403.46
  Q 222.88 403.49 222.88 403.54
  L 222.89 404.05
  Q 222.89 404.39 223.14 404.63
  L 227.94 409.21"
/>
<path stroke="#eea331" vector-effect="non-scaling-stroke" d="
  M 270.94 447.98
  Q 266.58 448.74 273.54 448.61
  Q 273.63 448.61 273.63 448.62
  Q 273.63 448.69 273.63 448.75
  Q 273.63 448.80 273.50 448.81
  L 271.32 448.87
  Q 270.27 448.90 271.01 449.64
  L 277.51 456.14
  Q 277.88 456.51 277.86 457.04
  Q 277.84 457.59 278.23 457.89
  Q 281.56 460.52 283.56 462.70
  Q 283.90 463.08 284.42 463.11
  Q 286.23 463.23 286.61 463.98"
/>
<path stroke="#f1b029" vector-effect="non-scaling-stroke" d="
  M 221.29 463.99
  Q 221.12 463.69 221.19 463.41
  Q 221.26 463.13 220.98 463.13
  L 219.99 463.13
  Q 219.87 463.13 219.87 463.01
  Q 219.87 462.83 219.87 462.65
  Q 219.87 462.39 219.69 462.21
  L 212.30 454.62
  Q 212.12 454.44 212.12 454.19
  L 212.12 453.85
  Q 212.12 453.51 211.88 453.26
  L 203.74 445.11
  Q 203.44 444.82 203.32 445.22
  L 203.12 445.86
  Q 203.02 446.19 202.68 446.14
  Q 202.48 446.11 202.25 446.00"
/>
<path stroke="#e26f52" vector-effect="non-scaling-stroke" d="
  M 391.50 384.06
  L 404.20 399.30
  Q 404.51 399.66 404.03 399.63
  Q 403.10 399.56 402.69 399.97"
/>
<path stroke="#f4bf1f" vector-effect="non-scaling-stroke" d="
  M 186.61 463.96
  Q 181.60 459.09 177.28 454.60
  Q 177.16 454.48 177.11 454.30
  Q 177.07 454.17 177.04 454.04
  Q 176.89 453.50 176.50 453.11
  L 172.33 449.01
  Q 171.93 448.62 171.37 448.63
  Q 168.60 448.68 170.45 448.00"
/>
<path stroke="#f1b029" vector-effect="non-scaling-stroke" d="
  M 245.69 480.02
  Q 243.30 480.38 246.92 480.75
  Q 247.42 480.80 247.55 481.29
  Q 247.85 482.43 248.47 483.03
  Q 254.64 488.94 257.99 492.77
  Q 258.23 493.04 258.14 493.42
  Q 258.03 493.91 258.44 494.22
  L 259.01 494.65
  A 0.11 0.11 0.0 0 1 258.95 494.85
  Q 258.79 494.86 258.62 494.92
  Q 258.11 495.09 258.65 495.14
  Q 261.40 495.38 260.31 495.98"
/>
<path stroke="#f4bf1f" vector-effect="non-scaling-stroke" d="
  M 185.03 480.03
  L 189.71 480.45
  Q 190.20 480.49 190.55 480.84
  Q 194.36 484.71 198.10 488.63
  Q 200.75 491.41 201.98 493.63
  Q 202.22 494.06 202.63 494.34
  Q 204.67 495.72 203.30 495.98"
/>
<path stroke="#eea331" vector-effect="non-scaling-stroke" d="
  M 277.54 480.03
  Q 279.40 480.26 281.19 480.49
  Q 282.40 480.64 283.01 481.29
  Q 283.76 482.08 284.04 483.16
  Q 284.17 483.63 284.57 483.93
  Q 285.75 484.79 286.50 486.01
  Q 287.73 487.98 288.04 488.34
  Q 289.86 490.40 292.35 492.57
  A 0.52 0.51 72.6 0 1 291.89 493.46
  Q 291.53 493.37 291.37 493.73
  Q 291.18 494.18 291.67 494.21
  L 293.97 494.35
  Q 294.31 494.37 294.16 494.68
  Q 294.06 494.87 293.97 495.06
  Q 293.93 495.13 294.01 495.13
  L 294.77 495.13
  A 0.24 0.24 0.0 0 1 294.82 495.61
  L 293.27 495.97"
/>
<path stroke="#d9476a" vector-effect="non-scaling-stroke" d="
  M 240.64 56.03
  Q 246.53 62.58 252.02 68.74
  Q 252.72 69.52 252.41 70.22
  Q 252.20 70.69 252.71 70.62
  Q 253.66 70.50 253.87 71.30
  Q 253.99 71.75 254.45 71.80
  L 255.96 71.99"
/>
<path stroke="#d9476a" vector-effect="non-scaling-stroke" d="
  M 282.18 104.01
  L 286.00 104.36
  Q 286.33 104.39 286.23 104.71
  L 285.85 105.85
  A 0.93 0.93 0.0 0 0 286.11 106.82
  Q 292.80 112.94 298.35 120.00"
/>
<path stroke="#dc5463" vector-effect="non-scaling-stroke" d="
  M 218.29 119.99
  Q 219.05 119.24 217.50 119.37
  A 0.01 0.01 0.0 0 1 217.49 119.35
  L 217.73 119.26
  A 0.08 0.08 0.0 0 0 217.76 119.13
  Q 215.73 116.89 213.43 114.90
  Q 213.23 114.72 213.17 114.50
  Q 213.08 114.20 213.09 113.88
  A 0.88 0.85 -67.3 0 0 212.83 113.21
  L 203.71 104.08
  Q 203.34 103.71 203.23 103.20
  Q 202.85 101.50 201.20 100.86
  Q 200.72 100.67 200.62 101.18
  L 200.03 104.01"
/>
<path stroke="#d73c71" vector-effect="non-scaling-stroke" d="
  M 276.09 56.03
  L 288.63 69.13
  A 0.87 0.85 -68.0 0 1 288.88 69.74
  Q 288.88 69.91 288.88 70.09
  Q 288.88 70.51 289.18 70.80
  L 297.69 79.31
  Q 297.88 79.49 297.88 79.75
  L 297.88 80.06
  Q 297.88 80.49 298.18 80.80
  L 307.50 90.13
  Q 307.87 90.51 307.86 91.04
  Q 307.85 91.60 308.27 91.96
  Q 309.88 93.36 311.35 94.91
  Q 311.55 95.12 311.26 95.13
  Q 311.11 95.13 310.96 95.12
  Q 310.70 95.12 310.75 95.37
  Q 310.81 95.65 311.22 95.99"
/>
<path stroke="#d73c71" vector-effect="non-scaling-stroke" d="
  M 316.42 103.93
  Q 318.64 105.92 319.21 107.53
  Q 319.37 107.98 319.70 108.31
  L 327.47 116.10
  Q 327.83 116.46 327.85 116.96
  Q 327.90 118.03 328.88 118.35
  A 0.40 0.40 0.0 0 1 328.75 119.13
  L 327.52 119.13
  A 0.33 0.33 0.0 0 0 327.49 119.79
  L 329.72 120.00"
/>
<path stroke="#d73c71" vector-effect="non-scaling-stroke" d="
  M 395.77 191.94
  L 386.41 182.12
  Q 386.01 181.69 385.92 181.12
  Q 385.72 179.83 384.37 179.08
  Q 383.88 178.80 383.88 178.23
  L 383.88 176.96
  Q 383.88 176.40 383.38 176.17
  Q 382.73 175.86 382.07 176.04"
/>
<path stroke="#dc5463" vector-effect="non-scaling-stroke" d="
  M 374.04 284.22
  L 364.30 273.67
  Q 364.13 273.48 364.12 273.23
  Q 364.12 273.06 364.10 272.90
  Q 364.04 272.41 363.70 272.06
  L 359.80 268.15"
/>
<path stroke="#dc5463" vector-effect="non-scaling-stroke" d="
  M 341.53 248.55
  L 335.31 241.72
  Q 335.13 241.52 335.13 241.27
  Q 335.12 241.10 335.11 240.94
  Q 335.07 240.44 334.75 240.05
  Q 330.89 235.39 326.07 233.29"
/>
<path stroke="#e0635a" vector-effect="non-scaling-stroke" d="
  M 265.34 208.03
  L 279.76 221.83
  Q 280.15 222.19 280.21 222.71
  Q 280.36 223.89 282.29 223.96"
/>
<path stroke="#e0635a" vector-effect="non-scaling-stroke" d="
  M 171.55 104.13
  Q 175.44 105.53 176.21 108.29
  Q 176.35 108.77 176.68 109.12
  L 186.84 119.96"
/>
<path stroke="#e26f52" vector-effect="non-scaling-stroke" d="
  M 172.40 146.28
  Q 171.92 146.67 171.39 146.13
  A 0.95 0.88 -68.5 0 1 171.14 145.49
  L 171.14 144.77
  A 0.14 0.14 0.0 0 0 170.86 144.72
  Q 170.81 144.87 170.74 145.01
  Q 170.64 145.21 170.44 145.10
  Q 169.80 144.75 169.86 144.11
  Q 169.92 143.53 169.51 143.12
  L 160.07 133.69
  Q 159.89 133.51 159.89 133.25
  L 159.89 132.90
  Q 159.89 132.51 159.60 132.22
  L 151.07 123.69
  A 0.63 0.61 -68.1 0 1 150.89 123.25
  L 150.89 122.75
  Q 150.89 122.24 150.37 122.23
  Q 149.62 122.21 148.79 121.79"
/>
<path stroke="#dc5463" vector-effect="non-scaling-stroke" d="
  M 302.05 208.02
  Q 301.63 208.59 300.48 208.33
  Q 300.43 208.32 300.38 208.36
  Q 300.29 208.46 300.20 208.55
  Q 300.12 208.63 300.24 208.63
  L 301.82 208.63
  Q 302.26 208.63 302.57 208.94
  L 307.94 214.31
  Q 308.12 214.49 308.12 214.75
  L 308.12 215.13
  Q 308.12 215.52 308.40 215.80
  L 315.21 222.52
  A 0.83 0.82 39.3 0 1 315.32 223.56
  L 315.04 223.99"
/>
<path stroke="#d9476a" vector-effect="non-scaling-stroke" d="
  M 406.01 241.36
  Q 405.32 242.15 404.72 240.74
  Q 404.44 240.08 404.05 239.68
  Q 401.08 236.68 398.07 233.71
  Q 397.88 233.53 397.88 233.26
  L 397.88 232.95
  Q 397.88 232.49 397.56 232.17
  Q 392.88 227.48 388.15 222.84
  Q 387.84 222.54 387.87 222.06
  Q 387.90 221.52 387.51 221.14
  L 375.87 209.50
  Q 375.87 209.50 375.87 209.49
  L 376.10 209.14
  Q 376.12 209.12 376.08 209.11
  L 367.73 208.04"
/>
<path stroke="#e26f52" vector-effect="non-scaling-stroke" d="
  M 230.68 208.00
  Q 233.35 209.65 235.17 211.91
  Q 238.12 215.55 238.15 215.58
  Q 241.53 219.19 244.90 222.84
  Q 245.03 222.98 244.87 223.07
  L 244.57 223.23
  Q 243.84 223.63 244.68 223.63
  L 249.70 223.63
  A 0.04 0.03 47.5 0 0 249.70 223.56
  Q 249.11 223.45 248.95 223.98"
/>
<path stroke="#e4784c" vector-effect="non-scaling-stroke" d="
  M 201.29 223.97
  L 202.99 223.80
  A 0.34 0.34 0.0 0 0 203.01 223.12
  Q 201.99 222.97 202.11 222.02
  Q 202.17 221.52 201.81 221.16
  Q 197.95 217.39 194.21 213.55
  Q 193.64 212.96 192.57 211.10
  C 191.94 210.00 190.70 208.88 189.45 208.50
  Q 188.63 208.25 188.54 207.36
  Q 188.50 206.87 188.15 206.52
  L 183.30 201.69
  Q 183.12 201.51 183.12 201.25
  L 183.12 200.94
  Q 183.12 200.51 182.82 200.20
  L 173.48 190.85
  Q 173.15 190.52 173.15 190.06
  Q 173.14 189.86 173.11 189.68
  Q 173.03 189.33 172.67 188.99
  Q 170.61 187.11 168.74 185.04
  Q 168.61 184.89 168.47 185.03
  L 168.09 185.41
  Q 167.72 185.78 167.83 185.27
  L 167.91 184.91
  Q 168.00 184.52 167.68 184.28
  L 166.36 183.26"
/>
<path stroke="#e0635a" vector-effect="non-scaling-stroke" d="
  M 319.26 254.80
  L 314.02 249.65
  Q 313.88 249.50 313.88 249.30
  Q 313.88 249.09 313.85 248.89
  Q 313.79 248.45 313.48 248.14
  L 306.29 240.84
  Q 305.85 240.40 306.47 240.41
  Q 307.41 240.42 307.47 240.02"
/>
<path stroke="#e26f52" vector-effect="non-scaling-stroke" d="
  M 105.02 80.09
  L 110.79 80.74
  A 0.10 0.10 0.0 0 1 110.83 80.93
  Q 110.69 81.01 110.56 81.04
  Q 109.84 81.19 110.25 81.65
  L 122.07 94.64
  Q 122.29 94.88 122.40 95.20
  Q 122.77 96.22 124.37 95.60
  Q 124.52 95.54 124.36 95.49
  Q 122.28 94.79 121.66 92.67
  Q 121.52 92.19 121.17 91.83
  L 112.31 82.73
  A 0.80 0.79 -67.0 0 1 112.09 82.18
  L 112.09 81.47
  A 0.38 0.38 0.0 0 1 112.75 81.21
  L 127.20 96.11"
/>
<path stroke="#e4784c" vector-effect="non-scaling-stroke" d="
  M 96.67 96.00
  Q 97.90 95.34 98.86 95.39
  A 0.04 0.03 -38.2 0 0 98.87 95.32
  Q 98.68 95.30 98.52 95.28
  A 0.50 0.47 -20.0 0 1 98.29 95.18
  L 93.01 90.60
  A 0.42 0.41 25.0 0 1 92.87 90.23
  Q 92.89 90.05 92.89 89.89
  Q 92.88 89.61 92.60 89.29
  Q 88.48 84.72 83.33 80.57"
/>
<path stroke="#e0635a" vector-effect="non-scaling-stroke" d="
  M 346.73 293.53
  Q 346.58 294.26 346.74 294.22
  Q 347.33 294.09 347.73 293.54
  Q 347.91 293.29 347.80 293.63
  Q 347.76 293.78 347.74 293.94
  Q 347.71 294.21 347.89 294.40
  L 358.17 305.24"
/>
<path stroke="#e3734f" vector-effect="non-scaling-stroke" d="
  M 243.31 240.04
  Q 246.50 244.67 250.57 248.05
  Q 250.99 248.39 250.91 248.92
  Q 250.80 249.61 251.25 250.00
  Q 253.13 251.61 257.91 255.31
  Q 258.30 255.60 258.78 255.61
  Q 259.21 255.61 259.62 255.61
  Q 259.63 255.61 259.63 255.62
  Q 259.63 255.63 259.63 255.63
  Q 259.63 255.67 259.60 255.66
  Q 258.47 255.59 257.73 255.98"
/>
<path stroke="#e88743" vector-effect="non-scaling-stroke" d="
  M 185.04 239.43
  Q 191.62 243.94 196.07 251.10"
/>
<path stroke="#e88743" vector-effect="non-scaling-stroke" d="
  M 217.23 294.38
  Q 217.70 294.18 217.84 294.95
  A 0.31 0.31 0.0 0 1 217.53 295.32
  Q 216.71 295.32 216.97 294.93
  A 0.08 0.08 0.0 0 1 217.12 294.97
  L 217.11 295.29
  Q 217.09 295.68 217.43 295.89
  Q 218.73 296.71 219.50 298.01
  Q 220.58 299.84 221.05 300.35
  Q 223.81 303.31 226.80 306.19
  Q 227.21 306.60 226.66 306.77
  Q 225.65 307.08 225.76 307.79"
/>
<path stroke="#e88743" vector-effect="non-scaling-stroke" d="
  M 151.18 200.19
  Q 148.47 198.22 146.18 195.91
  Q 145.99 195.71 145.93 195.49
  Q 145.86 195.23 145.86 194.97
  Q 145.84 194.47 145.49 194.11
  L 136.05 184.68
  Q 135.88 184.50 135.88 184.26
  Q 135.88 184.08 135.85 183.89
  Q 135.78 183.46 135.48 183.15
  L 129.88 177.43
  Q 129.61 177.14 129.32 177.41
  L 128.33 178.30"
/>
</g>
<path fill="#e16a55" d="
  M 131.61 16.03
  Q 136.32 22.57 142.19 27.90
  Q 142.54 28.21 142.79 28.62
  L 144.85 31.99
  L 43.84 32.00
  L 45.46 31.77
  Q 45.86 31.72 45.53 31.48
  Q 45.16 31.21 44.56 31.43
  Q 44.07 31.62 43.71 31.25
  L 32.87 20.15
  A 0.55 0.54 -53.6 0 0 31.99 20.29
  Q 31.90 20.45 31.80 20.61
  Q 31.65 20.84 31.43 20.68
  Q 30.26 19.78 29.67 18.38
  Q 34.71 16.04 40.25 16.03
  Q 86.37 15.98 131.61 16.03
  Z"
/>
<path fill="#da4c67" d="
  M 131.61 16.03
  L 170.52 16.02
  Q 172.26 16.71 172.27 18.48
  A 1.08 1.06 17.1 0 0 172.75 19.37
  L 175.42 21.17
  Q 175.77 21.40 175.86 21.82
  L 175.95 22.24
  A 1.27 1.26 14.4 0 0 176.37 22.94
  Q 180.46 26.40 183.63 30.68
  Q 183.94 31.09 183.51 31.38
  Q 182.54 32.02 181.04 31.98
  L 144.85 31.99
  L 142.79 28.62
  Q 142.54 28.21 142.19 27.90
  Q 136.32 22.57 131.61 16.03
  Z"
/>
<path fill="#d8426d" d="
  M 170.52 16.02
  L 243.94 16.02
  Q 245.33 16.21 246.41 16.56
  Q 247.44 16.89 248.44 17.93
  Q 253.00 22.68 257.78 27.23
  Q 261.31 30.59 259.24 31.97
  L 181.04 31.98
  Q 182.54 32.02 183.51 31.38
  Q 183.94 31.09 183.63 30.68
  Q 180.46 26.40 176.37 22.94
  A 1.27 1.26 14.4 0 1 175.95 22.24
  L 175.86 21.82
  Q 175.77 21.40 175.42 21.17
  L 172.75 19.37
  A 1.08 1.06 17.1 0 1 172.27 18.48
  Q 172.26 16.71 170.52 16.02
  Z"
/>
<path fill="#d53675" d="
  M 243.94 16.02
  L 318.48 16.01
  L 317.93 16.25
  Q 317.35 16.51 317.81 16.96
  Q 324.92 23.88 331.10 31.97
  L 259.24 31.97
  Q 261.31 30.59 257.78 27.23
  Q 253.00 22.68 248.44 17.93
  Q 247.44 16.89 246.41 16.56
  Q 245.33 16.21 243.94 16.02
  Z"
/>
<path fill="#cd118c" d="
  M 318.48 16.01
  Q 393.56 15.98 468.64 16.02
  Q 475.53 16.02 479.47 17.34
  Q 490.89 21.14 494.52 32.23
  Q 496.00 36.73 496.00 46.94
  Q 496.01 131.33 495.99 215.73
  L 495.53 212.76
  Q 495.46 212.26 494.98 212.09
  Q 493.07 211.41 492.96 209.60
  Q 492.93 209.21 492.64 208.96
  Q 486.01 203.30 481.01 196.17
  Q 480.63 195.62 480.43 196.26
  L 480.02 197.53
  Q 479.97 118.87 480.03 40.25
  Q 480.03 34.91 475.88 32.95
  Q 473.79 31.97 468.47 31.97
  Q 399.37 32.04 331.10 31.97
  Q 324.92 23.88 317.81 16.96
  Q 317.35 16.51 317.93 16.25
  L 318.48 16.01
  Z"
/>
<path fill="#e57c49" d="
  M 29.67 18.38
  Q 30.26 19.78 31.43 20.68
  Q 31.65 20.84 31.80 20.61
  Q 31.90 20.45 31.99 20.29
  A 0.55 0.54 -53.6 0 1 32.87 20.15
  L 43.71 31.25
  Q 44.07 31.62 44.56 31.43
  Q 45.16 31.21 45.53 31.48
  Q 45.86 31.72 45.46 31.77
  L 43.84 32.00
  Q 36.16 31.15 33.42 35.50
  Q 32.00 37.76 32.00 44.76
  Q 32.01 76.12 31.98 107.44
  L 31.29 109.96
  Q 31.12 110.58 30.67 110.12
  L 23.29 102.64
  Q 23.13 102.47 23.12 102.24
  Q 23.12 102.07 23.11 101.89
  Q 23.07 101.39 22.75 101.01
  Q 19.76 97.51 16.03 95.59
  Q 15.97 71.73 16.01 47.17
  Q 16.03 35.85 17.62 31.52
  Q 20.74 22.99 29.67 18.38
  Z"
/>
<path fill="#da4c67" d="
  M 240.64 56.03
  Q 246.53 62.58 252.02 68.74
  Q 252.72 69.52 252.41 70.22
  Q 252.20 70.69 252.71 70.62
  Q 253.66 70.50 253.87 71.30
  Q 253.99 71.75 254.45 71.80
  L 255.96 71.99
  L 216.51 72.01
  Q 216.00 72.01 216.00 72.52
  L 216.00 103.47
  Q 216.00 103.99 216.52 103.99
  L 282.18 104.01
  L 286.00 104.36
  Q 286.33 104.39 286.23 104.71
  L 285.85 105.85
  A 0.93 0.93 0.0 0 0 286.11 106.82
  Q 292.80 112.94 298.35 120.00
  L 218.29 119.99
  Q 219.05 119.24 217.50 119.37
  A 0.01 0.01 0.0 0 1 217.49 119.35
  L 217.73 119.26
  A 0.08 0.08 0.0 0 0 217.76 119.13
  Q 215.73 116.89 213.43 114.90
  Q 213.23 114.72 213.17 114.50
  Q 213.08 114.20 213.09 113.88
  A 0.88 0.85 -67.3 0 0 212.83 113.21
  L 203.71 104.08
  Q 203.34 103.71 203.23 103.20
  Q 202.85 101.50 201.20 100.86
  Q 200.72 100.67 200.62 101.18
  L 200.03 104.01
  Q 199.95 84.91 200.03 66.43
  C 200.05 60.63 201.93 56.02 208.25 56.00
  Q 224.84 55.97 240.64 56.03
  Z"
/>
<path fill="#d8426d" d="
  M 240.64 56.03
  L 276.09 56.03
  L 288.63 69.13
  A 0.87 0.85 -68.0 0 1 288.88 69.74
  Q 288.88 69.91 288.88 70.09
  Q 288.88 70.51 289.18 70.80
  L 297.69 79.31
  Q 297.88 79.49 297.88 79.75
  L 297.88 80.06
  Q 297.88 80.49 298.18 80.80
  L 307.50 90.13
  Q 307.87 90.51 307.86 91.04
  Q 307.85 91.60 308.27 91.96
  Q 309.88 93.36 311.35 94.91
  Q 311.55 95.12 311.26 95.13
  Q 311.11 95.13 310.96 95.12
  Q 310.70 95.12 310.75 95.37
  Q 310.81 95.65 311.22 95.99
  L 304.50 96.03
  Q 303.99 96.03 304.00 96.53
  L 304.01 103.42
  Q 304.02 103.93 304.52 103.93
  L 316.42 103.93
  Q 318.64 105.92 319.21 107.53
  Q 319.37 107.98 319.70 108.31
  L 327.47 116.10
  Q 327.83 116.46 327.85 116.96
  Q 327.90 118.03 328.88 118.35
  A 0.40 0.40 0.0 0 1 328.75 119.13
  L 327.52 119.13
  A 0.33 0.33 0.0 0 0 327.49 119.79
  L 329.72 120.00
  L 298.35 120.00
  Q 292.80 112.94 286.11 106.82
  A 0.93 0.93 0.0 0 1 285.85 105.85
  L 286.23 104.71
  Q 286.33 104.39 286.00 104.36
  L 282.18 104.01
  L 287.53 103.96
  Q 288.00 103.95 288.00 103.49
  L 288.00 72.52
  Q 288.00 72.02 287.50 72.02
  L 255.96 71.99
  L 254.45 71.80
  Q 253.99 71.75 253.87 71.30
  Q 253.66 70.50 252.71 70.62
  Q 252.20 70.69 252.41 70.22
  Q 252.72 69.52 252.02 68.74
  Q 246.53 62.58 240.64 56.03
  Z"
/>
<path fill="#d53675" d="
  M 276.09 56.03
  Q 284.73 55.97 293.16 56.01
  C 301.30 56.05 304.06 58.68 303.99 66.60
  Q 303.94 73.02 304.03 79.45
  Q 304.04 79.98 304.58 79.98
  Q 330.23 80.04 355.84 79.99
  C 364.99 79.97 368.07 81.91 368.00 91.13
  Q 367.96 97.29 368.02 103.46
  Q 368.02 103.97 368.54 103.98
  Q 376.91 104.06 385.24 103.99
  Q 393.08 103.93 396.58 105.25
  Q 404.18 108.13 406.04 116.18
  Q 406.87 119.76 405.86 126.31
  Q 400.78 159.26 395.77 191.94
  L 386.41 182.12
  Q 386.01 181.69 385.92 181.12
  Q 385.72 179.83 384.37 179.08
  Q 383.88 178.80 383.88 178.23
  L 383.88 176.96
  Q 383.88 176.40 383.38 176.17
  Q 382.73 175.86 382.07 176.04
  L 390.58 120.58
  Q 390.66 120.04 390.12 120.04
  L 329.72 120.00
  L 327.49 119.79
  A 0.33 0.33 0.0 0 1 327.52 119.13
  L 328.75 119.13
  A 0.40 0.40 0.0 0 0 328.88 118.35
  Q 327.90 118.03 327.85 116.96
  Q 327.83 116.46 327.47 116.10
  L 319.70 108.31
  Q 319.37 107.98 319.21 107.53
  Q 318.64 105.92 316.42 103.93
  L 351.28 104.02
  Q 352.00 104.02 352.00 103.30
  L 352.00 96.56
  Q 352.00 96.00 351.44 96.00
  L 311.22 95.99
  Q 310.81 95.65 310.75 95.37
  Q 310.70 95.12 310.96 95.12
  Q 311.11 95.13 311.26 95.13
  Q 311.55 95.12 311.35 94.91
  Q 309.88 93.36 308.27 91.96
  Q 307.85 91.60 307.86 91.04
  Q 307.87 90.51 307.50 90.13
  L 298.18 80.80
  Q 297.88 80.49 297.88 80.06
  L 297.88 79.75
  Q 297.88 79.49 297.69 79.31
  L 289.18 70.80
  Q 288.88 70.51 288.88 70.09
  Q 288.88 69.91 288.88 69.74
  A 0.87 0.85 -68.0 0 0 288.63 69.13
  L 276.09 56.03
  Z"
/>
<path fill="#e3744e" d="
  M 105.02 80.09
  L 110.79 80.74
  A 0.10 0.10 0.0 0 1 110.83 80.93
  Q 110.69 81.01 110.56 81.04
  Q 109.84 81.19 110.25 81.65
  L 122.07 94.64
  Q 122.29 94.88 122.40 95.20
  Q 122.77 96.22 124.37 95.60
  Q 124.52 95.54 124.36 95.49
  Q 122.28 94.79 121.66 92.67
  Q 121.52 92.19 121.17 91.83
  L 112.31 82.73
  A 0.80 0.79 -67.0 0 1 112.09 82.18
  L 112.09 81.47
  A 0.38 0.38 0.0 0 1 112.75 81.21
  L 127.20 96.11
  L 96.67 96.00
  Q 97.90 95.34 98.86 95.39
  A 0.04 0.03 -38.2 0 0 98.87 95.32
  Q 98.68 95.30 98.52 95.28
  A 0.50 0.47 -20.0 0 1 98.29 95.18
  L 93.01 90.60
  A 0.42 0.41 25.0 0 1 92.87 90.23
  Q 92.89 90.05 92.89 89.89
  Q 92.88 89.61 92.60 89.29
  Q 88.48 84.72 83.33 80.57
  Q 94.19 79.55 105.02 80.09
  Z"
/>
<path fill="#e16a55" d="
  M 105.02 80.09
  Q 117.50 80.01 129.98 79.96
  Q 139.05 79.92 143.39 81.34
  Q 157.82 86.05 160.41 103.74
  Q 160.45 104.03 160.74 104.03
  L 171.55 104.13
  Q 175.44 105.53 176.21 108.29
  Q 176.35 108.77 176.68 109.12
  L 186.84 119.96
  L 165.53 120.01
  Q 164.94 120.02 165.10 120.59
  L 172.40 146.28
  Q 171.92 146.67 171.39 146.13
  A 0.95 0.88 -68.5 0 1 171.14 145.49
  L 171.14 144.77
  A 0.14 0.14 0.0 0 0 170.86 144.72
  Q 170.81 144.87 170.74 145.01
  Q 170.64 145.21 170.44 145.10
  Q 169.80 144.75 169.86 144.11
  Q 169.92 143.53 169.51 143.12
  L 160.07 133.69
  Q 159.89 133.51 159.89 133.25
  L 159.89 132.90
  Q 159.89 132.51 159.60 132.22
  L 151.07 123.69
  A 0.63 0.61 -68.1 0 1 150.89 123.25
  L 150.89 122.75
  Q 150.89 122.24 150.37 122.23
  Q 149.62 122.21 148.79 121.79
  Q 146.81 114.87 144.82 107.94
  C 143.66 103.90 144.49 99.25 139.48 96.87
  C 136.35 95.37 131.15 96.00 127.20 96.11
  L 112.75 81.21
  A 0.38 0.38 0.0 0 0 112.09 81.47
  L 112.09 82.18
  A 0.80 0.79 -67.0 0 0 112.31 82.73
  L 121.17 91.83
  Q 121.52 92.19 121.66 92.67
  Q 122.28 94.79 124.36 95.49
  Q 124.52 95.54 124.37 95.60
  Q 122.77 96.22 122.40 95.20
  Q 122.29 94.88 122.07 94.64
  L 110.25 81.65
  Q 109.84 81.19 110.56 81.04
  Q 110.69 81.01 110.83 80.93
  A 0.10 0.10 0.0 0 0 110.79 80.74
  L 105.02 80.09
  Z"
/>
<path fill="#e57c49" d="
  M 83.33 80.57
  Q 88.48 84.72 92.60 89.29
  Q 92.88 89.61 92.89 89.89
  Q 92.89 90.05 92.87 90.23
  A 0.42 0.41 25.0 0 0 93.01 90.60
  L 98.29 95.18
  A 0.50 0.47 -20.0 0 0 98.52 95.28
  Q 98.68 95.30 98.87 95.32
  A 0.04 0.03 -38.2 0 1 98.86 95.39
  Q 97.90 95.34 96.67 96.00
  L 88.50 96.01
  Q 88.00 96.01 88.00 96.51
  L 88.00 111.49
  Q 88.00 111.99 88.50 111.99
  Q 104.12 112.03 119.75 111.99
  C 124.93 111.98 126.91 115.21 128.29 120.01
  Q 139.72 159.86 151.18 200.19
  Q 148.47 198.22 146.18 195.91
  Q 145.99 195.71 145.93 195.49
  Q 145.86 195.23 145.86 194.97
  Q 145.84 194.47 145.49 194.11
  L 136.05 184.68
  Q 135.88 184.50 135.88 184.26
  Q 135.88 184.08 135.85 183.89
  Q 135.78 183.46 135.48 183.15
  L 129.88 177.43
  Q 129.61 177.14 129.32 177.41
  L 128.33 178.30
  L 114.13 128.51
  Q 113.99 128.02 113.47 128.01
  Q 102.90 127.97 92.40 128.00
  C 83.53 128.03 76.74 126.44 73.32 118.14
  C 70.99 112.48 72.02 102.98 71.97 96.27
  Q 71.88 84.95 83.33 80.57
  Z"
/>
<path fill="#ea913c" d="
  M 16.03 95.59
  Q 19.76 97.51 22.75 101.01
  Q 23.07 101.39 23.11 101.89
  Q 23.12 102.07 23.12 102.24
  Q 23.13 102.47 23.29 102.64
  L 30.67 110.12
  Q 31.12 110.58 31.29 109.96
  L 31.98 107.44
  L 31.96 146.97
  Q 31.45 148.19 31.47 149.56
  Q 31.48 149.81 31.31 149.63
  L 17.10 133.82
  Q 16.80 133.48 16.76 133.01
  L 16.74 132.74
  A 0.26 0.26 0.0 0 0 16.23 132.75
  L 16.05 139.71
  L 16.03 95.59
  Z"
/>
<path fill="#de5c5e" d="
  M 218.29 119.99
  L 186.84 119.96
  L 176.68 109.12
  Q 176.35 108.77 176.21 108.29
  Q 175.44 105.53 171.55 104.13
  L 200.03 104.01
  L 200.62 101.18
  Q 200.72 100.67 201.20 100.86
  Q 202.85 101.50 203.23 103.20
  Q 203.34 103.71 203.71 104.08
  L 212.83 113.21
  A 0.88 0.85 -67.3 0 1 213.09 113.88
  Q 213.08 114.20 213.17 114.50
  Q 213.23 114.72 213.43 114.90
  Q 215.73 116.89 217.76 119.13
  A 0.08 0.08 0.0 0 1 217.73 119.26
  L 217.49 119.35
  A 0.01 0.01 0.0 0 0 217.50 119.37
  Q 219.05 119.24 218.29 119.99
  Z"
/>
<path fill="#e3744e" d="
  M 148.79 121.79
  Q 149.62 122.21 150.37 122.23
  Q 150.89 122.24 150.89 122.75
  L 150.89 123.25
  A 0.63 0.61 -68.1 0 0 151.07 123.69
  L 159.60 132.22
  Q 159.89 132.51 159.89 132.90
  L 159.89 133.25
  Q 159.89 133.51 160.07 133.69
  L 169.51 143.12
  Q 169.92 143.53 169.86 144.11
  Q 169.80 144.75 170.44 145.10
  Q 170.64 145.21 170.74 145.01
  Q 170.81 144.87 170.86 144.72
  A 0.14 0.14 0.0 0 1 171.14 144.77
  L 171.14 145.49
  A 0.95 0.88 -68.5 0 0 171.39 146.13
  Q 171.92 146.67 172.40 146.28
  L 189.89 207.47
  Q 190.03 207.98 190.56 207.98
  L 230.68 208.00
  Q 233.35 209.65 235.17 211.91
  Q 238.12 215.55 238.15 215.58
  Q 241.53 219.19 244.90 222.84
  Q 245.03 222.98 244.87 223.07
  L 244.57 223.23
  Q 243.84 223.63 244.68 223.63
  L 249.70 223.63
  A 0.04 0.03 47.5 0 0 249.70 223.56
  Q 249.11 223.45 248.95 223.98
  L 201.29 223.97
  L 202.99 223.80
  A 0.34 0.34 0.0 0 0 203.01 223.12
  Q 201.99 222.97 202.11 222.02
  Q 202.17 221.52 201.81 221.16
  Q 197.95 217.39 194.21 213.55
  Q 193.64 212.96 192.57 211.10
  C 191.94 210.00 190.70 208.88 189.45 208.50
  Q 188.63 208.25 188.54 207.36
  Q 188.50 206.87 188.15 206.52
  L 183.30 201.69
  Q 183.12 201.51 183.12 201.25
  L 183.12 200.94
  Q 183.12 200.51 182.82 200.20
  L 173.48 190.85
  Q 173.15 190.52 173.15 190.06
  Q 173.14 189.86 173.11 189.68
  Q 173.03 189.33 172.67 188.99
  Q 170.61 187.11 168.74 185.04
  Q 168.61 184.89 168.47 185.03
  L 168.09 185.41
  Q 167.72 185.78 167.83 185.27
  L 167.91 184.91
  Q 168.00 184.52 167.68 184.28
  L 166.36 183.26
  L 148.79 121.79
  Z"
/>
<path fill="#ec9d35" d="
  M 31.96 146.97
  L 31.95 192.49
  L 16.01 175.88
  L 16.05 139.71
  L 16.23 132.75
  A 0.26 0.26 0.0 0 1 16.74 132.74
  L 16.76 133.01
  Q 16.80 133.48 17.10 133.82
  L 31.31 149.63
  Q 31.48 149.81 31.47 149.56
  Q 31.45 148.19 31.96 146.97
  Z"
/>
<rect fill="#de5c5e" x="256.03" y="136.09" width="15.94" height="55.82" rx="7.73"/>
<rect fill="#da4c67" x="296.03" y="136.09" width="15.94" height="55.82" rx="7.73"/>
<rect fill="#e16a55" x="216.05" y="144.11" width="15.90" height="39.78" rx="7.63"/>
<rect fill="#d8426d" x="336.05" y="144.11" width="15.90" height="39.78" rx="7.64"/>
<path fill="#efa92d" d="
  M 16.01 175.88
  L 31.95 192.49
  L 31.97 235.04
  Q 31.86 235.64 31.56 236.04
  Q 31.26 236.42 30.98 236.03
  Q 24.42 226.83 16.85 218.42
  A 0.61 0.58 -67.5 0 1 16.69 218.01
  Q 16.69 217.85 16.63 217.72
  Q 16.32 216.99 16.41 217.82
  Q 16.55 219.16 16.01 220.06
  L 16.01 175.88
  Z"
/>
<path fill="#d8426d" d="
  M 395.77 191.94
  L 393.10 209.30
  A 0.68 0.67 -73.4 0 0 393.48 210.02
  C 405.60 215.59 411.07 228.89 406.01 241.36
  Q 405.32 242.15 404.72 240.74
  Q 404.44 240.08 404.05 239.68
  Q 401.08 236.68 398.07 233.71
  Q 397.88 233.53 397.88 233.26
  L 397.88 232.95
  Q 397.88 232.49 397.56 232.17
  Q 392.88 227.48 388.15 222.84
  Q 387.84 222.54 387.87 222.06
  Q 387.90 221.52 387.51 221.14
  L 375.87 209.50
  Q 375.87 209.50 375.87 209.49
  L 376.10 209.14
  Q 376.12 209.12 376.08 209.11
  L 367.73 208.04
  L 376.66 207.97
  Q 377.16 207.96 377.24 207.46
  L 382.07 176.04
  Q 382.73 175.86 383.38 176.17
  Q 383.88 176.40 383.88 176.96
  L 383.88 178.23
  Q 383.88 178.80 384.37 179.08
  Q 385.72 179.83 385.92 181.12
  Q 386.01 181.69 386.41 182.12
  L 395.77 191.94
  Z"
/>
<path fill="#ea913c" d="
  M 151.18 200.19
  Q 155.20 214.05 159.25 228.35
  C 160.27 231.98 159.57 236.51 164.13 238.94
  Q 166.22 240.06 170.54 240.12
  Q 178.03 240.23 185.04 239.43
  Q 191.62 243.94 196.07 251.10
  C 181.95 260.49 179.82 277.50 191.55 289.35
  Q 201.14 299.02 217.23 294.38
  Q 217.70 294.18 217.84 294.95
  A 0.31 0.31 0.0 0 1 217.53 295.32
  Q 216.71 295.32 216.97 294.93
  A 0.08 0.08 0.0 0 1 217.12 294.97
  L 217.11 295.29
  Q 217.09 295.68 217.43 295.89
  Q 218.73 296.71 219.50 298.01
  Q 220.58 299.84 221.05 300.35
  Q 223.81 303.31 226.80 306.19
  Q 227.21 306.60 226.66 306.77
  Q 225.65 307.08 225.76 307.79
  C 191.79 324.25 157.56 290.30 171.15 256.61
  Q 171.35 256.12 170.82 256.11
  Q 149.14 256.04 144.54 236.46
  C 139.97 216.95 133.90 197.55 128.33 178.30
  L 129.32 177.41
  Q 129.61 177.14 129.88 177.43
  L 135.48 183.15
  Q 135.78 183.46 135.85 183.89
  Q 135.88 184.08 135.88 184.26
  Q 135.88 184.50 136.05 184.68
  L 145.49 194.11
  Q 145.84 194.47 145.86 194.97
  Q 145.86 195.23 145.93 195.49
  Q 145.99 195.71 146.18 195.91
  Q 148.47 198.22 151.18 200.19
  Z"
/>
<path fill="#e57c49" d="
  M 166.36 183.26
  L 167.68 184.28
  Q 168.00 184.52 167.91 184.91
  L 167.83 185.27
  Q 167.72 185.78 168.09 185.41
  L 168.47 185.03
  Q 168.61 184.89 168.74 185.04
  Q 170.61 187.11 172.67 188.99
  Q 173.03 189.33 173.11 189.68
  Q 173.14 189.86 173.15 190.06
  Q 173.15 190.52 173.48 190.85
  L 182.82 200.20
  Q 183.12 200.51 183.12 200.94
  L 183.12 201.25
  Q 183.12 201.51 183.30 201.69
  L 188.15 206.52
  Q 188.50 206.87 188.54 207.36
  Q 188.63 208.25 189.45 208.50
  C 190.70 208.88 191.94 210.00 192.57 211.10
  Q 193.64 212.96 194.21 213.55
  Q 197.95 217.39 201.81 221.16
  Q 202.17 221.52 202.11 222.02
  Q 201.99 222.97 203.01 223.12
  A 0.34 0.34 0.0 0 1 202.99 223.80
  L 201.29 223.97
  Q 193.87 224.04 186.42 223.99
  C 179.18 223.94 177.46 222.06 175.61 215.65
  Q 170.97 199.49 166.36 183.26
  Z"
/>
<path fill="#d53675" d="
  M 495.99 215.73
  L 495.99 300.06
  Q 495.32 298.70 495.37 297.04
  Q 495.38 296.87 495.26 296.99
  L 495.03 297.22
  A 0.31 0.30 44.3 0 1 494.60 297.22
  L 490.06 292.70
  Q 489.88 292.52 489.88 292.26
  L 489.88 291.95
  Q 489.88 291.57 489.61 291.29
  L 481.65 283.17
  Q 481.20 282.71 480.96 283.30
  L 480.02 285.58
  L 480.02 197.53
  L 480.43 196.26
  Q 480.63 195.62 481.01 196.17
  Q 486.01 203.30 492.64 208.96
  Q 492.93 209.21 492.96 209.60
  Q 493.07 211.41 494.98 212.09
  Q 495.46 212.26 495.53 212.76
  L 495.99 215.73
  Z"
/>
<path fill="#e16a55" d="
  M 230.68 208.00
  L 265.34 208.03
  L 279.76 221.83
  Q 280.15 222.19 280.21 222.71
  Q 280.36 223.89 282.29 223.96
  L 248.95 223.98
  Q 249.11 223.45 249.70 223.56
  A 0.04 0.03 47.5 0 1 249.70 223.63
  L 244.68 223.63
  Q 243.84 223.63 244.57 223.23
  L 244.87 223.07
  Q 245.03 222.98 244.90 222.84
  Q 241.53 219.19 238.15 215.58
  Q 238.12 215.55 235.17 211.91
  Q 233.35 209.65 230.68 208.00
  Z"
/>
<path fill="#de5c5e" d="
  M 265.34 208.03
  L 302.05 208.02
  Q 301.63 208.59 300.48 208.33
  Q 300.43 208.32 300.38 208.36
  Q 300.29 208.46 300.20 208.55
  Q 300.12 208.63 300.24 208.63
  L 301.82 208.63
  Q 302.26 208.63 302.57 208.94
  L 307.94 214.31
  Q 308.12 214.49 308.12 214.75
  L 308.12 215.13
  Q 308.12 215.52 308.40 215.80
  L 315.21 222.52
  A 0.83 0.82 39.3 0 1 315.32 223.56
  L 315.04 223.99
  L 282.29 223.96
  Q 280.36 223.89 280.21 222.71
  Q 280.15 222.19 279.76 221.83
  L 265.34 208.03
  Z"
/>
<path fill="#da4c67" d="
  M 302.05 208.02
  L 367.73 208.04
  L 376.08 209.11
  Q 376.12 209.12 376.10 209.14
  L 375.87 209.49
  Q 375.87 209.50 375.87 209.50
  L 387.51 221.14
  Q 387.90 221.52 387.87 222.06
  Q 387.84 222.54 388.15 222.84
  Q 392.88 227.48 397.56 232.17
  Q 397.88 232.49 397.88 232.95
  L 397.88 233.26
  Q 397.88 233.53 398.07 233.71
  Q 401.08 236.68 404.05 239.68
  Q 404.44 240.08 404.72 240.74
  Q 405.32 242.15 406.01 241.36
  Q 400.45 253.28 388.06 255.56
  C 383.85 256.33 378.09 255.97 373.12 256.01
  Q 372.58 256.01 372.79 256.51
  Q 378.39 270.16 374.04 284.22
  L 364.30 273.67
  Q 364.13 273.48 364.12 273.23
  Q 364.12 273.06 364.10 272.90
  Q 364.04 272.41 363.70 272.06
  L 359.80 268.15
  Q 356.34 252.84 341.53 248.55
  L 335.31 241.72
  Q 335.13 241.52 335.13 241.27
  Q 335.12 241.10 335.11 240.94
  Q 335.07 240.44 334.75 240.05
  Q 330.89 235.39 326.07 233.29
  Q 344.23 228.95 359.33 239.71
  Q 359.73 239.99 360.22 239.99
  Q 370.98 240.02 381.72 239.97
  Q 386.51 239.95 388.72 238.55
  C 393.42 235.55 392.85 227.06 387.68 224.83
  Q 385.71 223.98 380.70 223.98
  Q 347.87 224.02 315.04 223.99
  L 315.32 223.56
  A 0.83 0.82 39.3 0 0 315.21 222.52
  L 308.40 215.80
  Q 308.12 215.52 308.12 215.13
  L 308.12 214.75
  Q 308.12 214.49 307.94 214.31
  L 302.57 208.94
  Q 302.26 208.63 301.82 208.63
  L 300.24 208.63
  Q 300.12 208.63 300.20 208.55
  Q 300.29 208.46 300.38 208.36
  Q 300.43 208.32 300.48 208.33
  Q 301.63 208.59 302.05 208.02
  Z"
/>
<path fill="#f2b724" d="
  M 31.97 235.04
  L 31.92 320.37
  Q 30.26 315.67 27.26 312.74
  Q 24.73 310.25 19.85 302.94
  C 19.07 301.78 19.05 300.89 19.13 299.55
  A 0.52 0.51 -14.2 0 0 18.35 299.09
  L 17.74 299.47
  A 0.16 0.16 0.0 0 0 17.76 299.75
  Q 17.90 299.82 18.07 299.87
  Q 18.22 299.92 18.08 299.99
  L 17.48 300.29
  Q 17.37 300.35 17.37 300.22
  L 17.37 298.79
  Q 17.37 298.31 17.01 298.63
  Q 16.86 298.77 16.83 298.96
  Q 16.78 299.28 16.46 299.25
  L 16.00 299.21
  L 16.01 220.06
  Q 16.55 219.16 16.41 217.82
  Q 16.32 216.99 16.63 217.72
  Q 16.69 217.85 16.69 218.01
  A 0.61 0.58 -67.5 0 0 16.85 218.42
  Q 24.42 226.83 30.98 236.03
  Q 31.26 236.42 31.56 236.04
  Q 31.86 235.64 31.97 235.04
  Z"
/>
<path fill="#e57c49" d="
  M 243.31 240.04
  Q 246.50 244.67 250.57 248.05
  Q 250.99 248.39 250.91 248.92
  Q 250.80 249.61 251.25 250.00
  Q 253.13 251.61 257.91 255.31
  Q 258.30 255.60 258.78 255.61
  Q 259.21 255.61 259.62 255.61
  Q 259.63 255.61 259.63 255.62
  Q 259.63 255.63 259.63 255.63
  Q 259.63 255.67 259.60 255.66
  Q 258.47 255.59 257.73 255.98
  L 245.17 256.02
  Q 244.62 256.02 244.82 256.53
  C 252.58 276.57 244.96 298.10 225.76 307.79
  Q 225.65 307.08 226.66 306.77
  Q 227.21 306.60 226.80 306.19
  Q 223.81 303.31 221.05 300.35
  Q 220.58 299.84 219.50 298.01
  Q 218.73 296.71 217.43 295.89
  Q 217.09 295.68 217.11 295.29
  L 217.12 294.97
  A 0.08 0.08 0.0 0 0 216.97 294.93
  Q 216.71 295.32 217.53 295.32
  A 0.31 0.31 0.0 0 0 217.84 294.95
  Q 217.70 294.18 217.23 294.38
  Q 232.10 286.63 231.88 271.76
  C 231.60 253.04 212.35 242.59 196.07 251.10
  Q 191.62 243.94 185.04 239.43
  Q 208.35 224.28 231.38 239.67
  Q 231.80 239.95 232.30 239.95
  L 243.31 240.04
  Z"
/>
<path fill="#de5c5e" d="
  M 326.07 233.29
  Q 330.89 235.39 334.75 240.05
  Q 335.07 240.44 335.11 240.94
  Q 335.12 241.10 335.13 241.27
  Q 335.13 241.52 335.31 241.72
  L 341.53 248.55
  Q 328.47 246.17 319.26 254.80
  L 314.02 249.65
  Q 313.88 249.50 313.88 249.30
  Q 313.88 249.09 313.85 248.89
  Q 313.79 248.45 313.48 248.14
  L 306.29 240.84
  Q 305.85 240.40 306.47 240.41
  Q 307.41 240.42 307.47 240.02
  L 311.82 239.97
  Q 312.32 239.96 312.73 239.67
  Q 318.74 235.31 326.07 233.29
  Z"
/>
<path fill="#e16a55" d="
  M 243.31 240.04
  L 307.47 240.02
  Q 307.41 240.42 306.47 240.41
  Q 305.85 240.40 306.29 240.84
  L 313.48 248.14
  Q 313.79 248.45 313.85 248.89
  Q 313.88 249.09 313.88 249.30
  Q 313.88 249.50 314.02 249.65
  L 319.26 254.80
  C 300.28 274.02 321.72 305.29 346.73 293.53
  Q 346.58 294.26 346.74 294.22
  Q 347.33 294.09 347.73 293.54
  Q 347.91 293.29 347.80 293.63
  Q 347.76 293.78 347.74 293.94
  Q 347.71 294.21 347.89 294.40
  L 358.17 305.24
  C 339.35 317.47 314.88 312.53 302.55 293.73
  Q 291.64 277.09 299.07 256.50
  Q 299.25 256.01 298.73 256.01
  L 257.73 255.98
  Q 258.47 255.59 259.60 255.66
  Q 259.63 255.67 259.63 255.63
  Q 259.63 255.63 259.63 255.62
  Q 259.63 255.61 259.62 255.61
  Q 259.21 255.61 258.78 255.61
  Q 258.30 255.60 257.91 255.31
  Q 253.13 251.61 251.25 250.00
  Q 250.80 249.61 250.91 248.92
  Q 250.99 248.39 250.57 248.05
  Q 246.50 244.67 243.31 240.04
  Z"
/>
<circle fill="#e57c49" cx="208.00" cy="272.00" r="7.95"/>
<circle fill="#de5c5e" cx="336.00" cy="272.00" r="7.96"/>
<path fill="#de5c5e" d="
  M 359.80 268.15
  L 363.70 272.06
  Q 364.04 272.41 364.10 272.90
  Q 364.12 273.06 364.12 273.23
  Q 364.13 273.48 364.30 273.67
  L 374.04 284.22
  Q 369.57 297.54 358.17 305.24
  L 347.89 294.40
  Q 347.71 294.21 347.74 293.94
  Q 347.76 293.78 347.80 293.63
  Q 347.91 293.29 347.73 293.54
  Q 347.33 294.09 346.74 294.22
  Q 346.58 294.26 346.73 293.53
  Q 361.40 285.32 359.80 268.15
  Z"
/>
<path fill="#d8426d" d="
  M 495.99 300.06
  L 495.98 337.37
  L 488.02 329.61
  Q 487.88 329.47 487.88 329.27
  Q 487.88 329.07 487.84 328.86
  Q 487.77 328.41 487.45 328.09
  L 481.46 322.06
  Q 480.83 321.42 480.83 322.32
  L 480.86 327.09
  Q 480.87 327.64 480.36 327.42
  L 480.01 327.27
  L 480.02 285.58
  L 480.96 283.30
  Q 481.20 282.71 481.65 283.17
  L 489.61 291.29
  Q 489.88 291.57 489.88 291.95
  L 489.88 292.26
  Q 489.88 292.52 490.06 292.70
  L 494.60 297.22
  A 0.31 0.30 44.3 0 0 495.03 297.22
  L 495.26 296.99
  Q 495.38 296.87 495.37 297.04
  Q 495.32 298.70 495.99 300.06
  Z"
/>
<path fill="#f6c71a" d="
  M 31.92 320.37
  L 32.04 327.40
  Q 32.05 327.96 32.61 327.97
  L 39.80 328.06
  Q 42.22 329.00 43.26 330.33
  C 46.80 334.82 51.54 338.88 55.52 343.10
  Q 56.04 343.65 55.28 343.61
  Q 53.85 343.53 53.43 343.97
  L 32.54 344.01
  Q 32.01 344.01 32.01 344.54
  Q 31.98 360.14 31.99 375.75
  C 31.99 382.81 37.36 384.04 43.53 384.02
  Q 66.79 383.97 90.03 384.01
  Q 90.09 384.49 89.47 384.35
  Q 89.92 384.32 90.30 384.52
  Q 90.45 384.60 90.37 384.75
  Q 90.31 384.86 90.25 384.98
  Q 90.14 385.20 90.30 385.38
  L 103.31 399.97
  Q 73.05 400.03 43.35 399.99
  Q 36.49 399.98 32.57 398.67
  Q 21.07 394.83 17.43 383.65
  Q 15.97 379.17 15.98 369.20
  Q 16.02 334.20 16.00 299.21
  L 16.46 299.25
  Q 16.78 299.28 16.83 298.96
  Q 16.86 298.77 17.01 298.63
  Q 17.37 298.31 17.37 298.79
  L 17.37 300.22
  Q 17.37 300.35 17.48 300.29
  L 18.08 299.99
  Q 18.22 299.92 18.07 299.87
  Q 17.90 299.82 17.76 299.75
  A 0.16 0.16 0.0 0 1 17.74 299.47
  L 18.35 299.09
  A 0.52 0.51 -14.2 0 1 19.13 299.55
  C 19.05 300.89 19.07 301.78 19.85 302.94
  Q 24.73 310.25 27.26 312.74
  Q 30.26 315.67 31.92 320.37
  Z"
/>
<path fill="#da4c67" d="
  M 495.98 337.37
  Q 496.01 356.46 496.05 375.75
  Q 496.07 383.05 491.56 389.75
  L 482.19 380.76
  Q 481.84 380.42 481.90 379.93
  Q 482.19 377.63 479.93 377.27
  L 479.92 344.68
  Q 479.92 344.07 479.31 344.07
  L 447.92 344.02
  Q 448.19 342.34 447.13 341.52
  C 445.65 340.37 444.45 339.03 443.10 337.75
  Q 442.89 337.55 442.89 337.26
  Q 442.88 337.08 442.86 336.90
  Q 442.79 336.44 442.46 336.12
  L 435.45 328.98
  Q 435.39 328.91 435.30 328.90
  Q 435.15 328.88 434.98 328.83
  Q 434.68 328.73 434.66 328.53
  Q 434.63 328.32 434.75 328.00
  Q 457.12 328.06 479.49 327.92
  Q 479.79 327.92 479.93 327.77
  Q 480.11 327.57 480.01 327.27
  L 480.36 327.42
  Q 480.87 327.64 480.86 327.09
  L 480.83 322.32
  Q 480.83 321.42 481.46 322.06
  L 487.45 328.09
  Q 487.77 328.41 487.84 328.86
  Q 487.88 329.07 487.88 329.27
  Q 487.88 329.47 488.02 329.61
  L 495.98 337.37
  Z"
/>
<path fill="#f2b724" d="
  M 39.80 328.06
  L 78.30 328.01
  Q 78.00 328.61 77.04 328.39
  Q 76.96 328.37 77.04 328.37
  L 78.24 328.44
  A 0.14 0.14 0.0 0 1 78.33 328.68
  Q 78.22 328.77 78.12 328.89
  Q 77.86 329.19 78.14 329.48
  Q 81.89 333.34 85.76 337.09
  Q 85.99 337.31 86.06 337.55
  Q 86.14 337.83 86.15 338.12
  Q 86.18 338.61 86.51 338.95
  L 91.37 343.98
  L 53.43 343.97
  Q 53.85 343.53 55.28 343.61
  Q 56.04 343.65 55.52 343.10
  C 51.54 338.88 46.80 334.82 43.26 330.33
  Q 42.22 329.00 39.80 328.06
  Z"
/>
<path fill="#efa92d" d="
  M 78.30 328.01
  L 154.72 328.02
  L 154.14 328.14
  Q 152.69 328.44 154.17 328.59
  L 154.79 328.66
  Q 155.30 328.71 154.98 329.11
  Q 154.72 329.43 155.03 329.72
  Q 160.98 335.42 165.16 340.03
  Q 165.21 340.09 166.40 341.85
  Q 167.28 343.16 168.98 343.45
  Q 169.20 343.49 169.01 343.60
  Q 168.77 343.75 168.45 343.50
  Q 168.09 343.23 167.92 343.64
  L 167.79 343.98
  L 91.37 343.98
  L 86.51 338.95
  Q 86.18 338.61 86.15 338.12
  Q 86.14 337.83 86.06 337.55
  Q 85.99 337.31 85.76 337.09
  Q 81.89 333.34 78.14 329.48
  Q 77.86 329.19 78.12 328.89
  Q 78.22 328.77 78.33 328.68
  A 0.14 0.14 0.0 0 0 78.24 328.44
  L 77.04 328.37
  Q 76.96 328.37 77.04 328.39
  Q 78.00 328.61 78.30 328.01
  Z"
/>
<path fill="#ec9d35" d="
  M 154.72 328.02
  L 210.96 328.03
  Q 209.83 327.98 209.16 328.22
  Q 207.77 328.72 209.28 328.61
  Q 211.63 328.44 212.82 330.51
  Q 212.88 330.61 212.88 330.74
  L 212.88 331.21
  A 0.71 0.70 21.3 0 0 213.11 331.73
  Q 219.20 337.19 224.35 343.97
  L 167.79 343.98
  L 167.92 343.64
  Q 168.09 343.23 168.45 343.50
  Q 168.77 343.75 169.01 343.60
  Q 169.20 343.49 168.98 343.45
  Q 167.28 343.16 166.40 341.85
  Q 165.21 340.09 165.16 340.03
  Q 160.98 335.42 155.03 329.72
  Q 154.72 329.43 154.98 329.11
  Q 155.30 328.71 154.79 328.66
  L 154.17 328.59
  Q 152.69 328.44 154.14 328.14
  L 154.72 328.02
  Z"
/>
<path fill="#ea913c" d="
  M 210.96 328.03
  L 253.03 328.02
  L 251.87 329.43
  Q 251.44 329.95 251.92 330.43
  L 261.49 340.14
  Q 261.84 340.49 261.69 340.97
  Q 261.28 342.26 262.73 342.43
  Q 263.11 342.48 262.88 342.78
  Q 262.79 342.91 262.69 343.04
  Q 262.60 343.17 262.75 343.17
  Q 263.86 343.19 264.31 343.98
  L 224.35 343.97
  Q 219.20 337.19 213.11 331.73
  A 0.71 0.70 21.3 0 1 212.88 331.21
  L 212.88 330.74
  Q 212.88 330.61 212.82 330.51
  Q 211.63 328.44 209.28 328.61
  Q 207.77 328.72 209.16 328.22
  Q 209.83 327.98 210.96 328.03
  Z"
/>
<path fill="#e57c49" d="
  M 253.03 328.02
  L 284.42 328.04
  Q 288.19 332.88 292.41 336.88
  Q 293.35 337.78 294.63 339.94
  Q 296.18 342.57 299.39 343.96
  L 264.31 343.98
  Q 263.86 343.19 262.75 343.17
  Q 262.60 343.17 262.69 343.04
  Q 262.79 342.91 262.88 342.78
  Q 263.11 342.48 262.73 342.43
  Q 261.28 342.26 261.69 340.97
  Q 261.84 340.49 261.49 340.14
  L 251.92 330.43
  Q 251.44 329.95 251.87 329.43
  L 253.03 328.02
  Z"
/>
<path fill="#e3744e" d="
  M 284.42 328.04
  L 319.54 328.05
  Q 323.81 333.79 328.93 338.32
  Q 329.12 338.49 329.12 338.74
  Q 329.12 338.90 329.15 339.05
  Q 329.20 339.40 329.44 339.65
  L 332.57 343.03
  Q 332.90 343.38 333.39 343.32
  Q 333.76 343.27 334.02 343.47
  Q 334.39 343.75 333.93 343.79
  L 331.79 343.98
  L 299.39 343.96
  Q 296.18 342.57 294.63 339.94
  Q 293.35 337.78 292.41 336.88
  Q 288.19 332.88 284.42 328.04
  Z"
/>
<path fill="#e16a55" d="
  M 319.54 328.05
  L 392.71 328.03
  L 399.69 335.28
  Q 399.87 335.47 399.88 335.74
  Q 399.88 335.94 399.90 336.14
  Q 399.96 336.62 400.31 336.96
  L 406.48 342.99
  A 0.17 0.17 0.0 0 1 406.26 343.26
  Q 405.87 343.00 405.58 343.15
  Q 405.05 343.44 405.64 343.54
  Q 406.26 343.65 406.21 343.99
  L 331.79 343.98
  L 333.93 343.79
  Q 334.39 343.75 334.02 343.47
  Q 333.76 343.27 333.39 343.32
  Q 332.90 343.38 332.57 343.03
  L 329.44 339.65
  Q 329.20 339.40 329.15 339.05
  Q 329.12 338.90 329.12 338.74
  Q 329.12 338.49 328.93 338.32
  Q 323.81 333.79 319.54 328.05
  Z"
/>
<path fill="#de5c5e" d="
  M 392.71 328.03
  L 434.75 328.00
  Q 434.63 328.32 434.66 328.53
  Q 434.68 328.73 434.98 328.83
  Q 435.15 328.88 435.30 328.90
  Q 435.39 328.91 435.45 328.98
  L 442.46 336.12
  Q 442.79 336.44 442.86 336.90
  Q 442.88 337.08 442.89 337.26
  Q 442.89 337.55 443.10 337.75
  C 444.45 339.03 445.65 340.37 447.13 341.52
  Q 448.19 342.34 447.92 344.02
  L 406.21 343.99
  Q 406.26 343.65 405.64 343.54
  Q 405.05 343.44 405.58 343.15
  Q 405.87 343.00 406.26 343.26
  A 0.17 0.17 0.0 0 0 406.48 342.99
  L 400.31 336.96
  Q 399.96 336.62 399.90 336.14
  Q 399.88 335.94 399.88 335.74
  Q 399.87 335.47 399.69 335.28
  L 392.71 328.03
  Z"
/>
<path fill="#de5c5e" d="
  M 479.93 377.27
  Q 482.19 377.63 481.90 379.93
  Q 481.84 380.42 482.19 380.76
  L 491.56 389.75
  Q 487.41 395.72 480.72 398.26
  Q 476.59 399.83 467.58 399.93
  Q 451.44 400.13 435.29 399.94
  Q 437.15 400.12 438.40 399.38
  Q 438.86 399.10 438.41 398.82
  Q 436.64 397.72 435.66 395.99
  Q 434.40 393.79 433.59 392.98
  Q 429.56 389.05 425.60 384.92
  Q 425.25 384.56 425.76 384.58
  Q 427.87 384.68 427.68 384.00
  Q 448.78 384.09 470.27 383.90
  C 475.52 383.86 478.76 382.51 479.93 377.27
  Z"
/>
<path fill="#f2b724" d="
  M 90.03 384.01
  L 154.94 384.02
  Q 155.50 384.62 156.96 384.49
  Q 157.22 384.47 157.07 384.68
  Q 156.98 384.81 156.87 384.91
  Q 156.67 385.10 156.86 385.30
  Q 159.74 388.30 162.76 391.18
  Q 162.94 391.35 162.98 391.57
  Q 163.03 391.80 163.04 392.04
  Q 163.05 392.52 163.39 392.87
  L 170.26 399.99
  L 103.31 399.97
  L 90.30 385.38
  Q 90.14 385.20 90.25 384.98
  Q 90.31 384.86 90.37 384.75
  Q 90.45 384.60 90.30 384.52
  Q 89.92 384.32 89.47 384.35
  Q 90.09 384.49 90.03 384.01
  Z"
/>
<path fill="#efa92d" d="
  M 154.94 384.02
  L 204.84 384.03
  Q 205.75 385.02 208.28 384.63
  Q 208.38 384.61 208.45 384.68
  Q 208.48 384.72 208.52 384.76
  Q 208.62 384.88 208.50 384.88
  L 206.32 384.88
  Q 205.25 384.88 206.01 385.64
  L 212.70 392.30
  Q 212.89 392.49 212.89 392.75
  L 212.89 393.08
  Q 212.89 393.51 213.20 393.81
  L 222.85 403.46
  Q 222.88 403.49 222.88 403.54
  L 222.89 404.05
  Q 222.89 404.39 223.14 404.63
  L 227.94 409.21
  L 218.43 447.38
  Q 218.28 447.95 218.87 447.95
  L 270.94 447.98
  Q 266.58 448.74 273.54 448.61
  Q 273.63 448.61 273.63 448.62
  Q 273.63 448.69 273.63 448.75
  Q 273.63 448.80 273.50 448.81
  L 271.32 448.87
  Q 270.27 448.90 271.01 449.64
  L 277.51 456.14
  Q 277.88 456.51 277.86 457.04
  Q 277.84 457.59 278.23 457.89
  Q 281.56 460.52 283.56 462.70
  Q 283.90 463.08 284.42 463.11
  Q 286.23 463.23 286.61 463.98
  L 221.29 463.99
  Q 221.12 463.69 221.19 463.41
  Q 221.26 463.13 220.98 463.13
  L 219.99 463.13
  Q 219.87 463.13 219.87 463.01
  Q 219.87 462.83 219.87 462.65
  Q 219.87 462.39 219.69 462.21
  L 212.30 454.62
  Q 212.12 454.44 212.12 454.19
  L 212.12 453.85
  Q 212.12 453.51 211.88 453.26
  L 203.74 445.11
  Q 203.44 444.82 203.32 445.22
  L 203.12 445.86
  Q 203.02 446.19 202.68 446.14
  Q 202.48 446.11 202.25 446.00
  L 213.60 400.59
  Q 213.74 400.03 213.16 400.03
  L 170.26 399.99
  L 163.39 392.87
  Q 163.05 392.52 163.04 392.04
  Q 163.03 391.80 162.98 391.57
  Q 162.94 391.35 162.76 391.18
  Q 159.74 388.30 156.86 385.30
  Q 156.67 385.10 156.87 384.91
  Q 156.98 384.81 157.07 384.68
  Q 157.22 384.47 156.96 384.49
  Q 155.50 384.62 154.94 384.02
  Z"
/>
<path fill="#ec9d35" d="
  M 204.84 384.03
  L 250.49 384.02
  Q 252.26 386.30 253.88 388.47
  Q 255.59 390.78 257.63 392.56
  Q 261.87 396.29 266.16 400.02
  L 230.77 400.03
  Q 230.24 400.03 230.11 400.54
  L 227.94 409.21
  L 223.14 404.63
  Q 222.89 404.39 222.89 404.05
  L 222.88 403.54
  Q 222.88 403.49 222.85 403.46
  L 213.20 393.81
  Q 212.89 393.51 212.89 393.08
  L 212.89 392.75
  Q 212.89 392.49 212.70 392.30
  L 206.01 385.64
  Q 205.25 384.88 206.32 384.88
  L 208.50 384.88
  Q 208.62 384.88 208.52 384.76
  Q 208.48 384.72 208.45 384.68
  Q 208.38 384.61 208.28 384.63
  Q 205.75 385.02 204.84 384.03
  Z"
/>
<path fill="#ea913c" d="
  M 250.49 384.02
  L 317.82 384.02
  L 319.02 386.24
  Q 319.24 386.64 319.55 386.98
  L 331.85 400.04
  L 298.85 400.04
  Q 298.23 400.04 298.38 400.65
  L 310.09 447.48
  Q 310.21 447.98 310.73 447.98
  Q 329.16 448.04 347.52 447.99
  Q 354.89 447.98 358.26 449.39
  C 369.89 454.26 367.99 466.09 368.01 476.42
  C 368.03 484.70 366.10 491.37 358.24 494.61
  C 352.13 497.13 341.19 495.99 333.78 495.99
  L 334.13 495.41
  Q 334.30 495.13 333.97 495.13
  L 333.55 495.13
  Q 333.23 495.13 333.05 494.86
  C 331.64 492.72 330.42 490.70 328.52 488.89
  Q 324.13 484.70 319.90 480.02
  L 351.49 480.00
  Q 352.00 480.00 352.00 479.49
  L 352.00 464.51
  Q 352.00 464.01 351.50 464.01
  L 316.98 464.02
  L 305.31 452.73
  Q 305.11 452.54 305.11 452.26
  L 305.11 451.93
  Q 305.11 451.50 304.81 451.20
  L 296.30 442.69
  Q 296.11 442.50 296.11 442.24
  L 296.11 441.96
  Q 296.11 441.53 295.82 441.23
  L 292.69 438.05
  Q 292.14 437.48 292.14 438.28
  Q 292.14 439.46 291.72 439.80
  L 281.89 400.54
  Q 281.76 400.03 281.22 400.03
  L 266.16 400.02
  Q 261.87 396.29 257.63 392.56
  Q 255.59 390.78 253.88 388.47
  Q 252.26 386.30 250.49 384.02
  Z"
/>
<path fill="#e57c49" d="
  M 317.82 384.02
  L 352.80 384.03
  L 355.52 388.09
  A 1.08 1.04 -0.9 0 0 355.85 388.40
  Q 357.00 389.11 357.63 390.22
  Q 358.68 392.08 359.07 392.52
  Q 363.03 397.05 367.62 400.01
  L 331.85 400.04
  L 319.55 386.98
  Q 319.24 386.64 319.02 386.24
  L 317.82 384.02
  Z"
/>
<path fill="#e3744e" d="
  M 352.80 384.03
  L 391.50 384.06
  L 404.20 399.30
  Q 404.51 399.66 404.03 399.63
  Q 403.10 399.56 402.69 399.97
  L 367.62 400.01
  Q 363.03 397.05 359.07 392.52
  Q 358.68 392.08 357.63 390.22
  Q 357.00 389.11 355.85 388.40
  A 1.08 1.04 -0.9 0 1 355.52 388.09
  L 352.80 384.03
  Z"
/>
<path fill="#e16a55" d="
  M 391.50 384.06
  L 427.68 384.00
  Q 427.87 384.68 425.76 384.58
  Q 425.25 384.56 425.60 384.92
  Q 429.56 389.05 433.59 392.98
  Q 434.40 393.79 435.66 395.99
  Q 436.64 397.72 438.41 398.82
  Q 438.86 399.10 438.40 399.38
  Q 437.15 400.12 435.29 399.94
  L 402.69 399.97
  Q 403.10 399.56 404.03 399.63
  Q 404.51 399.66 404.20 399.30
  L 391.50 384.06
  Z"
/>
<path fill="#ec9d35" d="
  M 316.98 464.02
  L 286.61 463.98
  Q 286.23 463.23 284.42 463.11
  Q 283.90 463.08 283.56 462.70
  Q 281.56 460.52 278.23 457.89
  Q 277.84 457.59 277.86 457.04
  Q 277.88 456.51 277.51 456.14
  L 271.01 449.64
  Q 270.27 448.90 271.32 448.87
  L 273.50 448.81
  Q 273.63 448.80 273.63 448.75
  Q 273.63 448.69 273.63 448.62
  Q 273.63 448.61 273.54 448.61
  Q 266.58 448.74 270.94 447.98
  L 293.18 447.97
  Q 293.75 447.97 293.61 447.42
  L 291.72 439.80
  Q 292.14 439.46 292.14 438.28
  Q 292.14 437.48 292.69 438.05
  L 295.82 441.23
  Q 296.11 441.53 296.11 441.96
  L 296.11 442.24
  Q 296.11 442.50 296.30 442.69
  L 304.81 451.20
  Q 305.11 451.50 305.11 451.93
  L 305.11 452.26
  Q 305.11 452.54 305.31 452.73
  L 316.98 464.02
  Z"
/>
<path fill="#f2b724" d="
  M 221.29 463.99
  L 186.61 463.96
  Q 181.60 459.09 177.28 454.60
  Q 177.16 454.48 177.11 454.30
  Q 177.07 454.17 177.04 454.04
  Q 176.89 453.50 176.50 453.11
  L 172.33 449.01
  Q 171.93 448.62 171.37 448.63
  Q 168.60 448.68 170.45 448.00
  L 201.28 447.98
  A 0.67 0.67 0.0 0 0 201.94 447.44
  L 202.25 446.00
  Q 202.48 446.11 202.68 446.14
  Q 203.02 446.19 203.12 445.86
  L 203.32 445.22
  Q 203.44 444.82 203.74 445.11
  L 211.88 453.26
  Q 212.12 453.51 212.12 453.85
  L 212.12 454.19
  Q 212.12 454.44 212.30 454.62
  L 219.69 462.21
  Q 219.87 462.39 219.87 462.65
  Q 219.87 462.83 219.87 463.01
  Q 219.87 463.13 219.99 463.13
  L 220.98 463.13
  Q 221.26 463.13 221.19 463.41
  Q 221.12 463.69 221.29 463.99
  Z"
/>
<path fill="#f6c71a" d="
  M 170.45 448.00
  Q 168.60 448.68 171.37 448.63
  Q 171.93 448.62 172.33 449.01
  L 176.50 453.11
  Q 176.89 453.50 177.04 454.04
  Q 177.07 454.17 177.11 454.30
  Q 177.16 454.48 177.28 454.60
  Q 181.60 459.09 186.61 463.96
  L 160.51 464.00
  Q 160.00 464.00 160.00 464.51
  L 160.00 479.49
  Q 160.00 480.00 160.51 480.00
  L 185.03 480.03
  L 189.71 480.45
  Q 190.20 480.49 190.55 480.84
  Q 194.36 484.71 198.10 488.63
  Q 200.75 491.41 201.98 493.63
  Q 202.22 494.06 202.63 494.34
  Q 204.67 495.72 203.30 495.98
  Q 183.27 496.04 163.24 495.98
  C 155.03 495.96 148.65 493.97 145.44 486.36
  Q 143.97 482.88 143.99 474.96
  C 144.00 469.45 143.31 462.76 145.27 458.01
  C 149.94 446.74 160.06 448.04 170.45 448.00
  Z"
/>
<path fill="#f2b724" d="
  M 185.03 480.03
  L 245.69 480.02
  Q 243.30 480.38 246.92 480.75
  Q 247.42 480.80 247.55 481.29
  Q 247.85 482.43 248.47 483.03
  Q 254.64 488.94 257.99 492.77
  Q 258.23 493.04 258.14 493.42
  Q 258.03 493.91 258.44 494.22
  L 259.01 494.65
  A 0.11 0.11 0.0 0 1 258.95 494.85
  Q 258.79 494.86 258.62 494.92
  Q 258.11 495.09 258.65 495.14
  Q 261.40 495.38 260.31 495.98
  L 203.30 495.98
  Q 204.67 495.72 202.63 494.34
  Q 202.22 494.06 201.98 493.63
  Q 200.75 491.41 198.10 488.63
  Q 194.36 484.71 190.55 480.84
  Q 190.20 480.49 189.71 480.45
  L 185.03 480.03
  Z"
/>
<path fill="#efa92d" d="
  M 245.69 480.02
  L 277.54 480.03
  Q 279.40 480.26 281.19 480.49
  Q 282.40 480.64 283.01 481.29
  Q 283.76 482.08 284.04 483.16
  Q 284.17 483.63 284.57 483.93
  Q 285.75 484.79 286.50 486.01
  Q 287.73 487.98 288.04 488.34
  Q 289.86 490.40 292.35 492.57
  A 0.52 0.51 72.6 0 1 291.89 493.46
  Q 291.53 493.37 291.37 493.73
  Q 291.18 494.18 291.67 494.21
  L 293.97 494.35
  Q 294.31 494.37 294.16 494.68
  Q 294.06 494.87 293.97 495.06
  Q 293.93 495.13 294.01 495.13
  L 294.77 495.13
  A 0.24 0.24 0.0 0 1 294.82 495.61
  L 293.27 495.97
  L 260.31 495.98
  Q 261.40 495.38 258.65 495.14
  Q 258.11 495.09 258.62 494.92
  Q 258.79 494.86 258.95 494.85
  A 0.11 0.11 0.0 0 0 259.01 494.65
  L 258.44 494.22
  Q 258.03 493.91 258.14 493.42
  Q 258.23 493.04 257.99 492.77
  Q 254.64 488.94 248.47 483.03
  Q 247.85 482.43 247.55 481.29
  Q 247.42 480.80 246.92 480.75
  Q 243.30 480.38 245.69 480.02
  Z"
/>
<path fill="#ec9d35" d="
  M 277.54 480.03
  L 319.90 480.02
  Q 324.13 484.70 328.52 488.89
  C 330.42 490.70 331.64 492.72 333.05 494.86
  Q 333.23 495.13 333.55 495.13
  L 333.97 495.13
  Q 334.30 495.13 334.13 495.41
  L 333.78 495.99
  L 293.27 495.97
  L 294.82 495.61
  A 0.24 0.24 0.0 0 0 294.77 495.13
  L 294.01 495.13
  Q 293.93 495.13 293.97 495.06
  Q 294.06 494.87 294.16 494.68
  Q 294.31 494.37 293.97 494.35
  L 291.67 494.21
  Q 291.18 494.18 291.37 493.73
  Q 291.53 493.37 291.89 493.46
  A 0.52 0.51 72.6 0 0 292.35 492.57
  Q 289.86 490.40 288.04 488.34
  Q 287.73 487.98 286.50 486.01
  Q 285.75 484.79 284.57 483.93
  Q 284.17 483.63 284.04 483.16
  Q 283.76 482.08 283.01 481.29
  Q 282.40 480.64 281.19 480.49
  Q 279.40 480.26 277.54 480.03
  Z"
/>
</svg>
